# xmcd
#
# Track frame offsets: 
#        150
#        18668
#        37833
#        52780
#        71100
#        92608
#        115413
#        136675
#        157075
#        178158
#        198153
#        217310
#        242193
#        266700
#
# Disc length: 3841 seconds
#
# Revision: 2
# Processed by: cddbd v1.5.2PL0 Copyright (c) Steve Scherf et al.
# Submitted via: ExactAudioCopyFreeDBPlugin 1.0
#
DISCID=cb0eff0e
DTITLE=TOKIO - TOK10
DYEAR=2004
DGENRE=JPop
TTITLE0=涙くんさよなら
TTITLE1=ブルドッグ
TTITLE2=よろしく哀愁
TTITLE3=抱きしめてTONIGHT
TTITLE4=ギンギラギンにさりげなく
TTITLE5=100％…SOかもね！
TTITLE6=気まぐれOne Way Boy
TTITLE7=君だけに
TTITLE8=DAYBREAK
TTITLE9=パラダイス銀河
TTITLE10=らいおんハート
TTITLE11=フラワー
TTITLE12=WAになっておどろう
TTITLE13=LOVE YOU ONLY
EXTD=YEAR: 2004
EXTT0=
EXTT1=
EXTT2=
EXTT3=
EXTT4=
EXTT5=
EXTT6=
EXTT7=
EXTT8=
EXTT9=
EXTT10=
EXTT11=
EXTT12=
EXTT13=
PLAYORDER=
